<?xml version="1.0" encoding="UTF-8"?>
<svg width="208px" height="59px" viewBox="0 0 208 59" version="1.1" xmlns="http://www.w3.org/2000/svg" xmlns:xlink="http://www.w3.org/1999/xlink">
    <!-- Generator: Sketch 49.1 (51147) - http://www.bohemiancoding.com/sketch -->
    <title>Artboard 6</title>
    <desc>Created with Sketch.</desc>
    <defs></defs>
    <g id="Artboard-6" stroke="none" stroke-width="1" fill="none" fill-rule="evenodd">
        <g id="Logo/on_white">
            <g transform="translate(0.000000, 2.000000)">
                <path d="M106.929183,13.2738054 L106.929183,40.434997 C113.360614,40.434997 113.707969,34.8108706 113.707969,34.8108706 L113.707969,7.64237412 C107.283708,7.64237412 106.929183,13.2738054 106.929183,13.2738054 Z M97.2813325,13.2738054 L97.2813325,40.434997 C103.713141,40.434997 104.067151,34.8108706 104.067151,34.8108706 L104.067151,7.64237412 C97.6354799,7.64237412 97.2813325,13.2738054 97.2813325,13.2738054 Z M93.9046947,9.02782865 C93.3237769,8.43103857 92.3575201,8.13412852 91.0034885,8.13412852 C89.6813313,8.13412852 88.7303375,8.41537565 88.1652214,8.97881406 C87.5940296,9.55157011 87.3121491,10.470923 87.3121491,11.7418661 C87.3121491,13.0152407 87.594031,13.9345936 88.1652214,14.5070787 C88.7303341,15.0705168 89.6813313,15.3520352 91.0034885,15.3520352 C92.3810202,15.3520352 93.3567353,15.0549907 93.9281981,14.4582013 C94.4937191,13.8697827 94.7831642,12.9605571 94.7831642,11.7418661 C94.7831642,10.5264159 94.4839942,9.61610668 93.9046981,9.02782522 L93.9046947,9.02782865 Z M87.6333381,24.150642 L87.6333381,24.150642 L87.6333381,40.4350313 C94.0654213,40.4350313 94.4116096,34.8109049 94.4116096,34.8109049 L94.4116096,18.5193822 C87.989098,18.5193822 87.6333381,24.1506763 87.6333381,24.1506763 L87.6333381,24.150642 Z M84.1094631,26.5080959 C82.9882844,25.179362 81.3461594,24.3190139 79.1905086,23.9104424 L79.1905086,23.7278952 C81.0244283,23.2938047 82.414794,22.4766615 83.3451112,21.278088 C84.2836825,20.0886953 84.7445236,18.5683683 84.7445236,16.7253414 C84.7445236,13.5799124 83.6490062,11.2694326 81.4678347,9.81864581 C79.2778842,8.35988888 75.7573917,7.62969762 70.9169308,7.62969762 C69.5522299,7.62969762 68.1792885,7.65440629 66.7975611,7.71624548 C66.5102767,7.72407664 66.2235322,7.73339305 65.936787,7.75027057 C59.8100672,8.23782724 59.2276777,13.9279889 59.2276777,13.9279889 L59.2276777,34.5975589 C59.2276777,34.5975589 59.3580159,39.6443268 64.5032155,40.6610402 C64.5032155,40.6695464 64.5121298,40.6610402 64.5121298,40.6610402 C64.9201627,40.6872341 65.3280618,40.7127527 65.728259,40.7299003 C67.7790927,40.8350811 69.8476287,40.8869288 71.9162847,40.8869288 C76.6445286,40.8869288 80.1473051,40.1402656 82.4062943,38.6276344 C84.6656712,37.1340405 85.7960338,34.8050653 85.7960338,31.6514226 C85.7960338,29.5488879 85.2397002,27.8381818 84.1094714,26.5081139 L84.1094631,26.5080959 Z M66.3195839,13.2241186 L66.3195839,13.2241186 C67.0147668,13.1111066 67.7791015,13.03347 68.5966528,12.9895887 C69.4133943,12.9454371 70.3169832,12.9199181 71.3083627,12.9199181 C73.4980457,12.9199181 75.0537214,13.2503126 75.9663809,13.9096172 C76.8882038,14.5610908 77.3479676,15.6829736 77.3479676,17.2547432 C77.3479676,18.8624302 76.9133265,19.9922763 76.0359411,20.6437499 C75.1582846,21.303595 73.6543296,21.6339874 71.525956,21.6339874 L66.3195805,21.6339874 L66.3195805,13.2241365 L66.3195839,13.2241186 Z M71.8298476,35.5875249 L71.8298476,35.5875249 L69.6917618,35.5875249 C69.1011216,35.5875249 68.6048898,35.5788836 68.1971279,35.5440483 C67.7880144,35.5178543 67.4407626,35.4913905 67.1451011,35.4568251 C66.858357,35.4323865 66.5801222,35.3876947 66.3195805,35.3266655 L66.3195805,26.5351098 L72.0117723,26.5351098 C74.2889784,26.5351098 75.9143583,26.8818404 76.8881866,27.5851614 C77.8699774,28.281596 78.3562123,29.418332 78.3562123,31.0011721 C78.3562123,34.0585689 76.183415,35.587528 71.8298545,35.587528 L71.8298476,35.5875249 Z" id="_251320360" fill="#215452" fill-rule="nonzero"></path>
                <path d="M128.467577,18.1577744 C124.713573,18.1577744 121.882726,19.1233022 119.98924,21.0580069 C118.095215,22.992036 117.144084,25.8516426 117.144084,29.6393335 C117.144084,37.083811 120.916202,40.8061697 128.467573,40.8061697 C129.588481,40.8061697 130.716953,40.7413602 131.869739,40.6129558 C131.89324,40.6041795 131.918227,40.6041795 131.941594,40.6041795 C136.778006,39.6621438 137.059492,34.7150203 137.059492,34.7150203 C136.503697,34.8513908 135.876047,34.98074 135.214498,35.1007719 C134.537821,35.2224249 133.843447,35.3267956 133.142865,35.4069975 C132.433366,35.4886847 131.740615,35.5528194 131.04746,35.6088528 C130.363083,35.6655612 129.717741,35.69054 129.120751,35.69054 C128.226617,35.69054 127.460392,35.6251903 126.824367,35.4886847 C126.186724,35.3515042 125.671582,35.1179201 125.268548,34.7953573 C124.857815,34.4733343 124.542976,34.0223657 124.333894,33.4581183 C124.116574,32.8856332 123.962195,32.1685392 123.881966,31.3060305 L133.111515,31.3060305 L133.287641,31.3060305 C134.150573,31.3060305 137.883255,31.1369854 138.123539,28.3014276 C138.123539,28.2125844 138.132048,28.1074036 138.132048,28.0108642 L138.132048,27.9384933 C138.132048,21.4202586 134.915327,18.1577632 128.467559,18.1577632 L128.467577,18.1577744 Z M123.842939,27.7371921 L123.842939,27.7371921 C123.979355,26.0052882 124.382256,24.7639109 125.059744,24.0227898 C125.736151,23.2732938 126.783179,22.9032014 128.186242,22.9032014 C129.564991,22.9032014 130.564206,23.2732904 131.169163,23.9986186 C131.781684,24.7312379 132.112191,25.972478 132.168241,27.7371989 L123.842946,27.7371989 L123.842939,27.7371921 Z M156.362271,20.0421201 C154.686244,18.841386 152.082174,18.2367664 148.568454,18.2367664 C147.858279,18.2367664 147.132841,18.2529688 146.391468,18.2934747 C140.814341,18.7687469 140.491687,23.7565169 140.491687,23.7565169 C141.660812,23.5383245 142.861953,23.3619892 144.118482,23.2335848 C145.376616,23.0964043 146.513058,23.0225484 147.512407,23.0225484 C148.48677,23.0225484 149.269205,23.087088 149.86552,23.207931 C150.46251,23.3294493 150.922408,23.5383255 151.245079,23.8375313 C151.574098,24.1351159 151.792366,24.5224873 151.912439,24.998435 C152.033322,25.4651986 152.097884,26.0690088 152.097884,26.8023038 L152.097884,27.043855 L147.021187,27.4067901 C144.151317,27.6236323 142.03904,28.2852323 140.69295,29.3963121 C139.338919,30.5082047 138.662241,32.1685449 138.662241,34.3925976 C138.662241,36.3655139 139.202368,37.8966336 140.282218,38.9921914 C141.361796,40.0969266 142.950032,40.6361969 145.037598,40.6361969 C146.334633,40.6361969 147.608301,40.4016669 148.850644,39.9272069 C150.090815,39.4596306 151.260754,38.7343024 152.340315,37.7602693 L152.710528,37.7602693 L153.314675,40.4351554 C158.643834,40.4351554 158.876948,34.811029 158.876948,34.811029 L158.876948,25.6662335 C158.876948,23.1198889 158.038867,21.2505302 156.362298,20.0421071 L156.362271,20.0421201 Z M152.097853,34.4728235 L152.097853,34.4728235 C151.557725,34.9069141 150.896715,35.2628255 150.131976,35.5442101 C149.357376,35.8340986 148.616137,35.9704677 147.91528,35.9704677 C146.295574,35.9704677 145.481803,35.1904559 145.481803,33.6180106 C145.481803,32.7008183 145.747477,32.0316587 146.270585,31.6122842 C146.802338,31.1930468 147.737667,30.9267863 149.091562,30.8152585 L152.097849,30.5728973 L152.097849,34.4728362 L152.097853,34.4728235 Z M178.929967,30.9835002 C178.558941,30.1934982 178.051635,29.5498575 177.406021,29.0340794 C176.753115,28.5173582 175.972707,28.1145928 175.04521,27.8332115 C174.125415,27.5512895 173.102833,27.3266142 171.966258,27.1647275 C170.418407,26.9473451 169.281966,26.7051179 168.556123,26.4307569 C167.822716,26.1651724 167.460877,25.6506114 167.460877,24.8917974 C167.460877,23.571706 168.685517,22.9032185 171.152477,22.9032185 C172.014599,22.9032185 173.061628,22.9912517 174.278299,23.168803 C175.497131,23.3451393 176.874663,23.5953315 178.421855,23.9177606 L178.421855,23.8694233 C178.429688,23.8609171 178.429688,23.8609171 178.421855,23.8530859 C178.372826,23.241446 177.817032,18.6005472 172.650792,18.1081035 C172.490199,18.0924411 172.337305,18.0844749 172.183196,18.0761037 C172.038135,18.0604413 171.886052,18.0604413 171.733158,18.0604413 C171.30473,18.0435638 170.878058,18.0355976 170.45949,18.0355976 C167.50939,18.0355976 165.19517,18.6557461 163.518467,19.8971199 C161.841899,21.1468652 161.004762,22.8618925 161.004762,25.0538038 C161.004762,26.5679199 161.262737,27.7606873 161.795029,28.6239951 C162.317461,29.4936612 162.986848,30.1544494 163.800753,30.6141927 C164.616009,31.072451 165.502307,31.3940707 166.461003,31.5725666 C167.419832,31.7489029 168.346516,31.8851382 169.241326,31.9988241 C170.53998,32.1608484 171.498675,32.4015895 172.102688,32.7242861 C172.71548,33.0468493 173.02235,33.5612758 173.02235,34.2710786 C173.02235,34.9480713 172.715481,35.4481834 172.102688,35.7693984 C171.498675,36.0919616 170.53998,36.2539851 169.241326,36.2539851 C168.000345,36.2539851 166.686291,36.1644666 165.30903,35.9704426 C163.921639,35.7864102 162.423221,35.5285225 160.795683,35.1981267 C160.795683,35.1981267 161.085129,39.8150052 165.928711,40.6853469 L165.93722,40.6853469 C166.510035,40.7486715 167.057452,40.7890424 167.581778,40.8223923 C168.282632,40.8614133 168.943645,40.8870671 169.564135,40.8870671 C172.8442,40.8870671 175.310909,40.2825812 176.979893,39.0815761 C178.639308,37.8731462 179.477931,36.1246332 179.477931,33.8191604 C179.477931,32.7164521 179.292486,31.765774 178.929971,30.9834679 L178.929967,30.9835002 Z M198.251775,12.9122662 L198.227058,12.9122662 L190.836138,33.418317 L190.473624,33.418317 L186.76662,22.3794702 C185.782801,19.4388654 181.703955,18.5195194 178.205775,18.5195194 L178.205775,19.2128468 L180.350074,24.1273042 C180.357908,24.1436416 180.357908,24.1522829 180.357908,24.1522829 L187.306752,40.1134406 L182.817042,51.1109618 C182.817042,51.1109618 182.026638,55.6560263 185.622217,56.4695067 C186.08995,56.5741473 187.516376,56.7353615 187.516376,56.7353615 L203.434519,18.1578024 C203.595112,16.8846987 203.651434,12.9122599 198.251781,12.9122599 L198.251775,12.9122662 Z" id="_251320648" fill="#0CC1B0" fill-rule="nonzero"></path>
                <g id="Group">
                    <path d="M0.0643452606,40.9437995 C0.122828474,39.1412785 0.868660982,38.0227738 2.30157039,37.587603 C23.3214196,37.9286639 33.831533,38.0991936 33.831533,38.0991936 C32.3397328,38.2066698 31.2663672,39.6482805 30.6117074,42.4241521 C30.0376784,45.6653125 30.4265325,47.4799739 31.7784041,47.8680233 C11.9543128,45.30021 2.04209555,44.0163033 2.04209555,44.0163033 C0.771940274,43.3606457 0.112549519,42.3365177 0.0643315379,40.9437823 L0.0643452606,40.9437995 Z" id="_251320912" fill="#215452"></path>
                    <path d="M16.7661894,2.82922457 C22.3009138,14.8009331 17.5804986,31.1659159 5.75739478,37.6435795 L33.8313065,38.0991388 L33.8218519,38.1000839 C34.47962,38.0895523 35.0401424,38.4569419 35.3405279,39.4101852 C35.6056616,40.2516298 35.5465029,41.3454283 35.2372029,42.4241061 L33.8125305,42.4241061 L30.6114775,42.4241061 C30.0375857,45.6645909 30.4260326,47.4792763 31.7773646,47.8678401 L31.778175,47.8679751 L32.4799756,47.9593837 C32.6755505,47.9805818 32.8705841,47.9543879 33.055219,47.9319746 C37.848028,47.1822076 44.0149895,33.1054025 45.4342551,28.6370562 C47.6672948,21.4356283 48.2998063,14.6774649 47.9410721,9.13057113 C47.9151395,8.74657202 47.4994084,8.59413704 47.1591792,8.76696048 L44.1731499,9.76948591 C43.8281932,9.94393184 43.4760768,9.78055757 43.3895005,9.40574151 L42.5443942,5.79206401 C42.5019837,5.60627633 42.3885285,5.47125608 42.2490058,5.40577056 C42.106917,5.34082588 41.9329525,5.34379618 41.762771,5.43061426 L38.4578546,7.11863754 C38.1153286,7.29402865 37.7619959,7.13132945 37.6736632,6.75624437 L37.1643297,2.42127177 C37.0758618,2.04767094 36.7230708,1.88402489 36.3797334,2.05739361 L32.7403822,4.4679089 C32.397721,4.6443803 32.046551,4.48060081 31.9580845,4.10632509 L31.1117637,0.492098871 C31.0257271,0.118768981 30.1760296,0.0188535593 29.8923926,0.280252044 C27.8045488,2.21995354 24.5186692,10.6647821 23.9515462,8.08266772 C22.843874,3.03250455 17.169501,2.2144286 17.169501,2.2144286 C16.8768139,2.251289 16.6033077,2.48163359 16.7661956,2.8291756 L16.7661894,2.82922457 Z M24.2239724,14.6640269 L40.9382013,17.6979316 L40.9379311,17.6979316 C41.2393973,18.179953 41.1306696,18.5369482 40.6113426,18.7689101 L23.897251,15.7350055 L23.8975211,15.7350055 C23.5960549,15.2531178 23.7047826,14.8961261 24.2239745,14.6640269 L24.2239724,14.6640269 Z M23.7227456,17.0879105 L40.4366999,20.1218151 L40.4364298,20.1218151 C40.7380311,20.6037028 40.6291683,20.9606945 40.1101116,21.1929308 L23.3957455,18.1588924 L23.3958806,18.1588924 C23.0945496,17.676871 23.2034121,17.3198759 23.7227392,17.0879139 L23.7227456,17.0879105 Z M24.809079,12.359367 L41.5230334,15.3932717 L41.5228983,15.3932717 C41.8242293,15.8752931 41.7155016,16.2322882 41.1963098,16.4642502 L24.4820809,13.4303455 L24.4823511,13.4303455 C24.1808849,12.9484578 24.2896126,12.5914661 24.8090745,12.359367 L24.809079,12.359367 Z M33.804863,38.1014948 C33.7640731,38.1048704 33.7234183,38.109191 33.6834391,38.1144568 C33.7234183,38.109191 33.7640731,38.1048703 33.804863,38.1014948 Z M33.0909075,38.2763461 C33.0490373,38.2941688 33.0075722,38.3134768 32.9665123,38.3337298 L33.0909075,38.2763461 Z M32.7636438,38.4470117 C32.7108332,38.4796866 32.6586977,38.5147919 32.6071029,38.5523276 C32.6584277,38.5147919 32.7106984,38.4796868 32.7636438,38.4470117 Z" id="_254508240" fill="#0CC1B0" fill-rule="nonzero"></path>
                </g>
            </g>
        </g>
    </g>
</svg>